# xmcd
#
# Track frame offsets: 
#        150
#        25082
#        51049
#        69021
#        109392
#        130555
#        155518
#        176725
#        193832
#        213871
#        230539
#        255514
#        269427
#        295738
#
# Disc length: 4123 seconds
#
# Revision: 1
# Processed by: cddbd v1.5.2PL0 Copyright (c) Steve Scherf et al.
# Submitted via: ExactAudioCopy v0.95a4
#
DISCID=c210190e
DTITLE=Super Chikan - Chikan Supe
DYEAR=2005
DGENRE=Blues
TTITLE0=Poor Broke Boy
TTITLE1=Reliable Sources
TTITLE2=Wavy Thoughts
TTITLE3=Just Ain't The Same No Mo'
TTITLE4=Old Field Song
TTITLE5=Ground Zero
TTITLE6=Clarksdale
TTITLE7=Don't Play
TTITLE8=Special Glow
TTITLE9=Robert Johnson
TTITLE10=A Tribute To The King
TTITLE11=Groundhog Blues
TTITLE12=All My Yesterdays
TTITLE13=Heartache
EXTD=
EXTT0=
EXTT1=
EXTT2=
EXTT3=
EXTT4=
EXTT5=
EXTT6=
EXTT7=
EXTT8=
EXTT9=
EXTT10=
EXTT11=
EXTT12=
EXTT13=
PLAYORDER=
